<?xml version="1.0" standalone="no"?>
<!DOCTYPE svg PUBLIC "-//W3C//DTD SVG 1.1//EN" "http://www.w3.org/Graphics/SVG/1.1/DTD/svg11.dtd" >
<svg xmlns="http://www.w3.org/2000/svg">
<metadata>
This is a custom SVG webfont generated by Font Squirrel.
</metadata>
<defs>
<font id="webfont6EDnQfw1" horiz-adv-x="485" >
<font-face units-per-em="2048" ascent="1638" descent="-410" />
<missing-glyph horiz-adv-x="500" />
<glyph unicode=" " />
<glyph unicode="!" d="M335 185v-185h-185v185h185zM335 1430v-1060h-185v1060h185z" />
<glyph unicode="&#x22;" horiz-adv-x="755" d="M285 1430l-30 -435h-125l-30 435h185zM655 1430l-30 -435h-125l-30 435h185z" />
<glyph unicode="#" horiz-adv-x="1893" d="M803 876l-90 -378h377l90 378h-377zM403 -5l89 349h-392l30 154h402l89 378h-401l30 154h412l100 395h180l-100 -395h378l102 400h180l-101 -400h392l-30 -154h-402l-89 -378h401l-30 -154h-412l-90 -349h-180l90 349h-378l-90 -349h-180z" />
<glyph unicode="$" horiz-adv-x="1050" d="M150 240v160q175 -60 364 -60q251 0 251 150q0 140 -165 140h-150q-350 0 -350 310q0 260 350 300v190h175v-190q150 -10 275 -50v-160q-175 60 -343 60q-292 0 -292 -150q0 -140 185 -140h150q350 0 350 -310q0 -260 -325 -300v-190h-175v190q-175 10 -300 50z" />
<glyph unicode="%" horiz-adv-x="1422" d="M378 1035q144 0 144 147q0 144 -144 144q-148 0 -148 -144q0 -147 148 -147zM100 1180q0 260 278 260q274 0 274 -260q0 -259 -274 -259q-278 0 -278 259zM1048 104q144 0 144 147q0 144 -144 144q-148 0 -148 -144q0 -147 148 -147zM770 249q0 260 278 260 q274 0 274 -260q0 -259 -274 -259q-278 0 -278 259zM305 0h-205l1017 1430h205z" />
<glyph unicode="&#x26;" horiz-adv-x="1275" d="M293 727q-193 85 -193 318q0 385 510 385q185 0 360 -50v-150q-175 50 -347 50q-338 0 -338 -230q0 -250 255 -250h388v142h63l102 -142h182v-150h-162v-160q0 -493 -518 -493q-495 0 -495 397q0 247 193 333zM542 650q-257 0 -257 -251q0 -249 301 -249q342 0 342 342 v158h-386z" />
<glyph unicode="'" horiz-adv-x="385" d="M285 1430l-30 -435h-125l-30 435h185z" />
<glyph unicode="(" horiz-adv-x="560" d="M485 1430q-200 -452 -200 -905t200 -905h-185q-200 452 -200 905t200 905h185z" />
<glyph unicode=")" horiz-adv-x="560" d="M260 1430q200 -452 200 -905t-200 -905h-185q200 452 200 905t-200 905h185z" />
<glyph unicode="*" horiz-adv-x="810" d="M327 1430h156l-30 -232l209 101l48 -147l-228 -43l159 -170l-123 -92l-113 205l-113 -204l-124 89l161 171l-230 42l48 150l211 -103z" />
<glyph unicode="+" horiz-adv-x="950" d="M400 600v300h150v-300h300v-150h-300v-300h-150v300h-300v150h300z" />
<glyph unicode="," horiz-adv-x="535" d="M435 185l-150 -435h-185l150 435h185z" />
<glyph unicode="-" horiz-adv-x="700" d="M600 600v-150h-500v150h500z" />
<glyph unicode="&#x2010;" horiz-adv-x="700" d="M600 600v-150h-500v150h500z" />
<glyph unicode="." horiz-adv-x="385" d="M285 185v-185h-185v185h185z" />
<glyph unicode="/" horiz-adv-x="980" d="M230 0h-205l725 1430h205z" />
<glyph unicode="0" horiz-adv-x="1375" d="M693 140q412 0 412 579q0 571 -412 571q-423 0 -423 -571q0 -579 423 -579zM75 713q0 727 618 727q607 0 607 -727q0 -723 -607 -723q-618 0 -618 723z" />
<glyph unicode="1" horiz-adv-x="635" d="M250 0v1241h-150v89l335 100v-1430h-185z" />
<glyph unicode="2" horiz-adv-x="1180" d="M100 0v150q795 547 795 870q0 270 -340 270q-220 0 -415 -110v160q195 100 415 100q525 0 525 -420q0 -370 -715 -870h715v-150h-980z" />
<glyph unicode="3" horiz-adv-x="1115" d="M100 1380q200 60 400 60q515 0 515 -390q0 -236 -188 -325q188 -85 188 -325q0 -410 -515 -410q-200 0 -400 60v160q200 -70 400 -70q330 0 330 260q0 250 -252 250h-328v150h325q255 0 255 250q0 240 -330 240q-200 0 -400 -70v160z" />
<glyph unicode="4" horiz-adv-x="1125" d="M902 0h-185v420h-642v150l395 860h184l-386 -860h449v528h185v-528l148 -76v-74h-148v-420z" />
<glyph unicode="5" horiz-adv-x="1175" d="M150 1430h854v-150h-696l-34 -402q117 22 256 22q570 0 570 -440q0 -470 -550 -470q-230 0 -430 60v160q200 -70 430 -70q365 0 365 320q0 290 -385 290q-235 0 -430 -50z" />
<glyph unicode="6" horiz-adv-x="1240" d="M100 530q0 466 508 943l126 -107q-262 -246 -374 -489q91 23 256 23q524 0 524 -430q0 -480 -553 -480q-487 0 -487 540zM596 140q363 0 363 330q0 280 -352 280q-194 0 -304 -28q-28 -110 -28 -176q0 -406 321 -406z" />
<glyph unicode="7" horiz-adv-x="1125" d="M100 1430h950v-150l-572 -1280h-211l592 1280h-759v150z" />
<glyph unicode="8" horiz-adv-x="1240" d="M100 424q0 223 212 321q-172 105 -172 333q0 366 480 366t480 -366q0 -228 -177 -333q217 -98 217 -321q0 -434 -520 -434t-520 434zM915 1058q0 232 -303 232q-287 0 -287 -232q0 -238 300 -238q290 0 290 238zM955 418q0 252 -343 252q-327 0 -327 -252 q0 -278 340 -278q330 0 330 278z" />
<glyph unicode="9" horiz-adv-x="1240" d="M1140 904q0 -466 -508 -943l-126 107q262 246 374 489q-133 -63 -296 -63q-484 0 -484 470q0 480 533 480q507 0 507 -540zM624 1294q-343 0 -343 -330q0 -310 312 -310q234 0 344 79q28 89 28 155q0 406 -341 406z" />
<glyph unicode=":" horiz-adv-x="385" d="M285 185v-185h-185v185h185zM285 1050v-185h-185v185h185z" />
<glyph unicode=";" horiz-adv-x="535" d="M435 1050v-185h-185v185h185zM435 185l-150 -435h-185l150 435h185z" />
<glyph unicode="&#x3c;" horiz-adv-x="1100" d="M100 450v150l900 400v-150l-743 -329l743 -321v-150z" />
<glyph unicode="=" horiz-adv-x="950" d="M850 450v-150h-750v150h750zM850 750v-150h-750v150h750z" />
<glyph unicode="&#x3e;" horiz-adv-x="1100" d="M100 50v150l743 321l-743 329v150l900 -400v-150z" />
<glyph unicode="?" horiz-adv-x="1115" d="M250 185v-185h185v185h-185zM100 1380q210 50 400 50q515 0 515 -390t-497 -390h-83v-280h-185v430h265q315 0 315 240t-330 240q-190 0 -400 -50v150z" />
<glyph unicode="@" horiz-adv-x="2150" d="M625 327q0 323 426 323q157 0 274 -20v99q0 171 -283 171q-162 0 -332 -50v150q170 50 332 50q468 0 468 -336v-626q0 -88 100 -88q205 0 205 540q0 750 -726 750q-754 0 -754 -750q0 -770 685 -770v-150q-870 0 -870 920q0 900 924 900q926 0 926 -900q0 -690 -427 -690 q-241 0 -241 224q-127 -74 -312 -74q-395 0 -395 327zM1051 500q-241 0 -241 -170q0 -180 210 -180q192 0 305 82v248q-110 20 -274 20z" />
<glyph unicode="A" horiz-adv-x="1472" d="M25 0l607 1430h205l610 -1430h-195l-190 450h-478l51 150h357l-264 638l-511 -1238h-192z" />
<glyph unicode="B" horiz-adv-x="1310" d="M150 0v1430h610q408 0 408 -333q0 -244 -266 -349q284 -53 284 -325q0 -423 -447 -423h-589zM728 150q256 0 256 260q0 253 -343 253h-80v121q410 55 410 296q0 200 -228 200h-408v-1130h393z" />
<glyph unicode="C" horiz-adv-x="1385" d="M1250 50q-185 -60 -400 -60q-750 0 -750 745q0 705 750 705q215 0 400 -60v-160q-185 70 -380 70q-585 0 -585 -555q0 -595 585 -595q195 0 380 70v-160z" />
<glyph unicode="D" horiz-adv-x="1500" d="M690 150q525 0 525 604q0 526 -525 526h-355v-1130h355zM150 0v1430h580q670 0 670 -676q0 -754 -670 -754h-580z" />
<glyph unicode="E" horiz-adv-x="1225" d="M1085 1430v-150h-750v-480h715v-150h-715v-500h765v-150h-950v1430h935z" />
<glyph unicode="F" horiz-adv-x="1210" d="M1085 1430v-150h-750v-480h715v-150h-715v-650h-185v1430h935z" />
<glyph unicode="G" horiz-adv-x="1385" d="M1250 56q-173 -66 -373 -66q-777 0 -777 745q0 705 750 705q215 0 400 -60v-160q-185 70 -380 70q-585 0 -585 -555q0 -595 576 -595q92 0 204 24v486h185v-594z" />
<glyph unicode="H" horiz-adv-x="1535" d="M150 0v1430h185v-630h865v630h185v-1430h-185v650h-865v-650h-185z" />
<glyph unicode="I" d="M335 1430v-1430h-185v1430h185z" />
<glyph unicode="J" horiz-adv-x="660" d="M510 1430v-1018q0 -412 -485 -412v150q300 0 300 262v1018h185z" />
<glyph unicode="K" horiz-adv-x="1430" d="M335 1430v-1430h-185v1430h185zM1321 1430l-641 -667l725 -763h-277l-633 698v112l592 620h234z" />
<glyph unicode="L" horiz-adv-x="1183" d="M335 1430v-1280h748v-150h-933v1430h185z" />
<glyph unicode="M" horiz-adv-x="1800" d="M150 0v1430h235l525 -1193l515 1193h225v-1430h-165v1153l-508 -1153h-146l-516 1153v-1153h-165z" />
<glyph unicode="N" horiz-adv-x="1535" d="M150 0v1430h185l875 -1142v1142h175v-1430h-185l-875 1142v-1142h-175z" />
<glyph unicode="O" horiz-adv-x="1625" d="M818 140q512 0 512 579q0 571 -512 571q-523 0 -523 -571q0 -579 523 -579zM100 713q0 727 718 727q707 0 707 -727q0 -723 -707 -723q-718 0 -718 723z" />
<glyph unicode="P" horiz-adv-x="1243" d="M150 0v1430h610q408 0 408 -343q0 -387 -569 -479l-38 156q410 65 410 315q0 198 -228 198h-408v-1277h-185z" />
<glyph unicode="Q" horiz-adv-x="1625" d="M818 140q512 0 512 579q0 571 -512 571q-523 0 -523 -571q0 -579 523 -579zM100 713q0 727 718 727q707 0 707 -727q0 -598 -485 -706l232 -270l-144 -108l-310 361q-718 0 -718 723z" />
<glyph unicode="R" horiz-adv-x="1285" d="M150 0v1430h610q408 0 408 -343q0 -279 -399 -413l491 -674h-244l-455 643v121q410 65 410 315q0 198 -228 198h-408v-1277h-185z" />
<glyph unicode="S" horiz-adv-x="1310" d="M170 50v170q225 -80 486 -80q369 0 369 270q0 230 -272 230h-204q-449 0 -449 390q0 410 575 410q250 0 465 -60v-170q-215 80 -465 80q-390 0 -390 -260q0 -230 264 -230h204q457 0 457 -390q0 -420 -554 -420q-261 0 -486 60z" />
<glyph unicode="T" horiz-adv-x="1085" d="M1085 1430v-150h-450v-1280h-185v1280h-450v150h1085z" />
<glyph unicode="U" horiz-adv-x="1490" d="M150 552v878h185v-878q0 -412 410 -412t410 412v878h185v-878q0 -562 -595 -562t-595 562z" />
<glyph unicode="V" horiz-adv-x="1472" d="M1447 1430l-607 -1430h-205l-610 1430h195l524 -1238l511 1238h192z" />
<glyph unicode="W" horiz-adv-x="1850" d="M25 1430h179l201 -1244l404 1244h185l433 -1244l227 1244h171l-269 -1430h-252l-404 1198l-391 -1198h-249z" />
<glyph unicode="X" horiz-adv-x="1410" d="M25 1430h225l1125 -1430h-225zM250 0h-225l1125 1430h225z" />
<glyph unicode="Y" horiz-adv-x="1300" d="M25 1430h205l412 -747l418 747h215l-546 -930v-500h-185v500z" />
<glyph unicode="Z" horiz-adv-x="1250" d="M1125 1430v-150l-777 -1130h757v-150h-980v150l804 1130h-784v150h980z" />
<glyph unicode="[" horiz-adv-x="650" d="M600 1430v-150h-265v-1510h265v-150h-450v1810h450z" />
<glyph unicode="\" horiz-adv-x="980" d="M25 1430h205l725 -1430h-205z" />
<glyph unicode="]" horiz-adv-x="650" d="M500 1430v-1810h-450v150h265v1510h-265v150h450z" />
<glyph unicode="^" horiz-adv-x="1050" d="M450 1430h150l400 -730h-150l-329 603l-321 -603h-150z" />
<glyph unicode="_" horiz-adv-x="1050" d="M1025 0v-150h-1000v150h1000z" />
<glyph unicode="`" horiz-adv-x="400" d="M400 1355v-150l-400 150v150z" />
<glyph unicode="a" horiz-adv-x="1135" d="M100 327q0 323 426 323q157 0 274 -20v99q0 171 -283 171q-162 0 -332 -50v150q170 50 332 50q468 0 468 -336v-714h-94l-74 74q-137 -74 -322 -74q-395 0 -395 327zM526 500q-241 0 -241 -170q0 -180 210 -180q192 0 305 82v248q-110 20 -274 20z" />
<glyph unicode="b" horiz-adv-x="1188" d="M335 183q91 -29 221 -29q350 0 350 399q0 337 -317 337q-144 0 -254 -54v-653zM150 1430h185v-430q119 50 255 50q498 0 498 -504q0 -546 -523 -546q-226 0 -415 43v1387z" />
<glyph unicode="c" horiz-adv-x="1025" d="M950 30q-130 -30 -280 -30q-570 0 -570 545q0 505 570 505q150 0 280 -30v-150q-130 30 -260 30q-405 0 -405 -355q0 -395 405 -395q130 0 260 30v-150z" />
<glyph unicode="d" horiz-adv-x="1190" d="M855 836q-112 54 -256 54q-317 0 -317 -337q0 -399 317 -399q144 0 256 39v643zM1040 63q-191 -63 -471 -63q-469 0 -469 546q0 504 498 504q136 0 257 -50v430h185v-1367z" />
<glyph unicode="e" horiz-adv-x="1132" d="M992 472h-707q0 -322 406 -322q139 0 278 30v-150q-139 -30 -338 -30q-531 0 -531 537q0 513 503 513q482 0 389 -578zM285 626h538q14 276 -250 276q-270 0 -288 -276z" />
<glyph unicode="f" horiz-adv-x="721" d="M150 -5v1106q0 381 392 381q129 0 234 -40v-150q-99 40 -235 40q-206 0 -206 -173v-109h315v-150h-315v-901z" />
<glyph unicode="g" horiz-adv-x="1187" d="M852 872q-95 24 -235 24q-335 0 -335 -363q0 -373 317 -373q144 0 253 54v658zM1037 0q0 -380 -483 -380q-194 0 -344 50v150q153 -50 346 -50q296 0 296 230v50q-118 -50 -254 -50q-498 0 -498 531q0 519 525 519q213 0 412 -43v-1007z" />
<glyph unicode="h" horiz-adv-x="1205" d="M150 0v1430h185v-494q164 114 357 114q363 0 363 -391v-659h-185v662q0 234 -233 234q-159 0 -302 -133v-763h-185z" />
<glyph unicode="i" d="M335 1430v-150h-185v150h185zM335 1050v-1050h-185v1050h185z" />
<glyph unicode="j" d="M335 1430v-150h-185v150h185zM335 1050v-970q0 -318 -155 -478l-155 105q125 135 125 373v970h185z" />
<glyph unicode="k" horiz-adv-x="1181" d="M150 0v1430h185v-462q163 82 363 82q382 0 382 -303q0 -220 -300 -304l336 -443h-234l-334 445v83q347 31 347 220q0 152 -220 152q-173 0 -340 -94v-806h-185z" />
<glyph unicode="l" d="M335 1430v-1430h-185v1430h185z" />
<glyph unicode="m" horiz-adv-x="1805" d="M150 0v1050h125l31 -132q181 132 359 132q198 0 281 -144q201 144 377 144q332 0 332 -399v-651h-185v661q0 235 -198 235q-148 0 -277 -136v-760h-185v658q0 238 -196 238q-156 0 -279 -136v-760h-185z" />
<glyph unicode="n" horiz-adv-x="1205" d="M150 0v1050h125l33 -134q191 134 384 134q363 0 363 -391v-659h-185v662q0 234 -233 234q-159 0 -302 -133v-763h-185z" />
<glyph unicode="o" horiz-adv-x="1200" d="M600 150q315 0 315 379q0 371 -315 371t-315 -371q0 -379 315 -379zM100 525q0 525 500 525t500 -525q0 -524 -500 -524q-498 0 -500 524z" />
<glyph unicode="p" horiz-adv-x="1187" d="M335 214q109 -54 243 -54q327 0 327 393q0 343 -325 343q-140 0 -245 -24v-658zM150 1007q209 43 432 43q505 0 505 -499q0 -551 -508 -551q-126 0 -244 50v-430h-185v1387z" />
<glyph unicode="q" horiz-adv-x="1187" d="M852 872q-95 24 -235 24q-335 0 -335 -363q0 -373 317 -373q144 0 253 54v658zM1037 -380h-185v430q-118 -50 -254 -50q-498 0 -498 531q0 519 525 519q213 0 412 -43v-1387z" />
<glyph unicode="r" horiz-adv-x="675" d="M150 0v1050h125l33 -134q138 134 332 134v-154q-188 0 -305 -133v-763h-185z" />
<glyph unicode="s" horiz-adv-x="1050" d="M150 50v160q175 -60 364 -60q251 0 251 150q0 140 -165 140h-170q-330 0 -330 310q0 300 437 300q188 0 363 -50v-160q-175 60 -363 60q-262 0 -262 -150q0 -140 155 -140h170q350 0 350 -310q0 -300 -436 -300q-189 0 -364 50z" />
<glyph unicode="t" horiz-adv-x="650" d="M150 1220h116l40 -170h244v-150h-215v-603q0 -147 127 -147h88v-150h-136q-264 0 -264 283v937z" />
<glyph unicode="u" horiz-adv-x="1205" d="M1055 1050v-1050h-127l-32 134q-191 -134 -384 -134q-362 0 -362 391v659h185v-662q0 -234 232 -234q159 0 303 133v763h185z" />
<glyph unicode="v" horiz-adv-x="1000" d="M0 1050h200l301 -823l299 823h200l-427 -1050h-172z" />
<glyph unicode="w" horiz-adv-x="1520" d="M26 1050h187l196 -813l263 813h167l282 -813l178 813h196l-274 -1050h-189l-281 785l-266 -785h-193z" />
<glyph unicode="x" horiz-adv-x="1120" d="M25 1050h215l785 -1050h-215zM240 0h-215l785 1050h215z" />
<glyph unicode="y" horiz-adv-x="1050" d="M25 1050h201l297 -820l307 820h196l-436 -1081q-116 -286 -348 -357l-71 131q176 77 256 251z" />
<glyph unicode="z" horiz-adv-x="990" d="M120 1050h770v-150l-567 -760h547v-140h-770v140l575 760h-555v150z" />
<glyph unicode="{" horiz-adv-x="675" d="M625 1430q-130 -176 -130 -478q0 -352 -210 -427q210 -75 210 -427q0 -302 130 -478h-185q-130 176 -130 478q0 352 -210 352v150q210 0 210 352q0 302 130 478h185z" />
<glyph unicode="|" d="M335 1430v-1810h-185v1810h185z" />
<glyph unicode="}" horiz-adv-x="675" d="M235 1430q130 -176 130 -478q0 -352 210 -352v-150q-210 0 -210 -352q0 -302 -130 -478h-185q130 176 130 478q0 352 210 427q-210 75 -210 427q0 302 -130 478h185z" />
<glyph unicode="~" horiz-adv-x="950" d="M850 620v-150q-105 -110 -365 -20t-385 -20v150q105 110 365 20t385 20z" />
<glyph unicode="&#xa1;" d="M335 1050v-185h-185v185h185zM150 -380v1060h185v-1060h-185z" />
<glyph unicode="&#xa2;" horiz-adv-x="1050" d="M950 220q-130 -30 -205 -30v-190h-175v190q-470 52 -470 545q0 451 470 505v190h175v-190q85 0 205 -30v-150q-130 30 -260 30q-405 0 -405 -355q0 -395 405 -395q130 0 260 30v-150z" />
<glyph unicode="&#xa3;" horiz-adv-x="1217" d="M100 122q186 75 186 291q0 117 -77 291t-77 323q0 413 558 413q270 0 427 -100v-180q-158 130 -434 130q-354 0 -354 -261q0 -144 45 -229h376v-150h-324q49 -134 49 -234q0 -137 -64 -238q92 18 301.5 -39t404.5 81v-170q-188 -131 -485.5 -56.5t-531.5 -23.5v152z" />
<glyph unicode="&#xa4;" horiz-adv-x="1139" d="M216 756l-116 120l109 112l125 -121q108 68 242 68q124 0 225 -68l128 121l110 -112l-118 -120q58 -83 58 -231q0 -139 -68 -232l128 -120l-110 -112l-128 123q-108 -60 -233 -60q-124 0 -243 60l-116 -123l-109 112l116 120q-57 103 -57 232q0 137 57 231zM322 529 q0 -246 245 -246t245 246q0 244 -245 244t-245 -244z" />
<glyph unicode="&#xa5;" horiz-adv-x="1250" d="M50 1430h205l362 -627l368 627h215l-433 -700h313v-150h-376v-111h376v-150h-376v-319h-185v319h-349v150h349v111h-349v150h287z" />
<glyph unicode="&#xa6;" horiz-adv-x="201" />
<glyph unicode="&#xa7;" horiz-adv-x="1050" d="M150 40v160q175 -60 364 -60q251 0 251 150q0 130 -195 130h-110q-360 0 -360 300q0 138 122 196q-122 80 -122 224q0 300 457 300q168 0 343 -50v-160q-175 60 -343 60q-292 0 -292 -150q0 -130 195 -130h110q380 0 380 -297q0 -130 -120 -202q120 -64 120 -221 q0 -300 -436 -300q-189 0 -364 50zM460 568h110q195 0 195 136q0 157 -195 157h-110q-195 0 -195 -144q0 -149 195 -149z" />
<glyph unicode="&#xa8;" horiz-adv-x="555" d="M555 1430v-150h-185v150h185zM185 1430v-150h-185v150h185z" />
<glyph unicode="&#xa9;" horiz-adv-x="1163" d="M580 664q360 0 360 361q0 369 -360 369q-357 0 -357 -369q0 -361 357 -361zM150 1023q0 427 430 427q433 0 433 -427q0 -415 -433 -415q-418 0 -430 415zM765 830q-71 -27 -146 -27q-226 0 -226 229q0 213 226 213q75 0 146 -27v62q-71 23 -154 23q-289 0 -289 -271 q0 -287 289 -287q83 0 154 23v62z" />
<glyph unicode="&#xaa;" horiz-adv-x="402" />
<glyph unicode="&#xab;" horiz-adv-x="1009" d="M100 525l258 375h202l-258 -375l258 -375h-202zM499 525l258 375h202l-258 -375l258 -375h-202z" />
<glyph unicode="&#xac;" horiz-adv-x="1395" />
<glyph unicode="&#xad;" horiz-adv-x="636" />
<glyph unicode="&#x2212;" horiz-adv-x="636" />
<glyph unicode="&#xae;" horiz-adv-x="1163" d="M404 756v536h229q153 0 153 -128q0 -105 -150 -155l184 -253h-91l-171 241v45q154 25 154 119q0 74 -86 74h-153v-479h-69zM580 664q360 0 360 361q0 369 -360 369q-357 0 -357 -369q0 -361 357 -361zM150 1023q0 427 430 427q433 0 433 -427q0 -415 -433 -415 q-418 0 -430 415z" />
<glyph unicode="&#xaf;" horiz-adv-x="360" />
<glyph unicode="&#x2c9;" horiz-adv-x="360" />
<glyph unicode="&#xb0;" horiz-adv-x="752" d="M378 1025q144 0 144 147q0 144 -144 144q-148 0 -148 -144q0 -147 148 -147zM100 1170q0 260 278 260q274 0 274 -260q0 -259 -274 -259q-278 0 -278 259z" />
<glyph unicode="&#xb1;" horiz-adv-x="636" />
<glyph unicode="&#xb2;" horiz-adv-x="300" />
<glyph unicode="&#xb3;" horiz-adv-x="300" />
<glyph unicode="&#xb4;" horiz-adv-x="400" d="M400 1505v-150l-400 -150v150z" />
<glyph unicode="&#xb5;" horiz-adv-x="1205" d="M1055 1050v-1050h-127l-32 134q-191 -134 -364 -134q-130 0 -197 80v-460h-185v1430h185v-612q0 -284 232 -284q159 0 303 133v763h185z" />
<glyph unicode="&#x3bc;" horiz-adv-x="1205" d="M1055 1050v-1050h-127l-32 134q-191 -134 -364 -134q-130 0 -197 80v-460h-185v1430h185v-612q0 -284 232 -284q159 0 303 133v763h185z" />
<glyph unicode="&#xb6;" horiz-adv-x="953" d="M443 -434v972q-443 0 -443 448q0 444 443 444h510v-90h-150v-1774h-100v1774h-160v-1774h-100z" />
<glyph unicode="&#xb7;" horiz-adv-x="450" d="M100 525q0 125 125 125t125 -125t-125 -125t-125 125z" />
<glyph unicode="&#x2219;" horiz-adv-x="450" d="M100 525q0 125 125 125t125 -125t-125 -125t-125 125z" />
<glyph unicode="&#xb8;" horiz-adv-x="457" d="M0 -264q108 -50 216 -50t108 65q0 64 -83 64h-183l131 259h135l-81 -151q214 0 214 -172q0 -173 -241 -173q-108 0 -216 50v108z" />
<glyph unicode="&#xb9;" horiz-adv-x="300" />
<glyph unicode="&#xba;" horiz-adv-x="402" />
<glyph unicode="&#xbb;" horiz-adv-x="1009" d="M651 150h-202l258 375l-258 375h202l258 -375zM252 150h-202l258 375l-258 375h202l258 -375z" />
<glyph unicode="&#xbc;" horiz-adv-x="786" />
<glyph unicode="&#xbd;" horiz-adv-x="786" />
<glyph unicode="&#xbe;" horiz-adv-x="786" />
<glyph unicode="&#xbf;" horiz-adv-x="1115" d="M435 1050v-185h-185v185h185zM100 -180q210 -50 400 -50q330 0 330 240t-315 240h-265v430h185v-280h83q497 0 497 -390t-515 -390q-190 0 -400 50v150z" />
<glyph unicode="&#xc0;" horiz-adv-x="1472" d="M925 1688v-150l-400 150v150zM25 0l607 1430h205l610 -1430h-195l-190 450h-478l51 150h357l-264 638l-511 -1238h-192z" />
<glyph unicode="&#xc1;" horiz-adv-x="1472" d="M925 1838v-150l-400 -150v150zM25 0l607 1430h205l610 -1430h-195l-190 450h-478l51 150h357l-264 638l-511 -1238h-192z" />
<glyph unicode="&#xc2;" horiz-adv-x="1472" d="M657 1834h150l175 -260h-150l-100 160l-100 -160h-150zM25 0l607 1430h205l610 -1430h-195l-190 450h-478l51 150h357l-264 638l-511 -1238h-192z" />
<glyph unicode="&#xc3;" horiz-adv-x="1472" d="M988 1809v-150q-105 -80 -240 -20t-260 -20v150q105 80 240 20t260 20zM25 0l607 1430h205l610 -1430h-195l-190 450h-478l51 150h357l-264 638l-511 -1238h-192z" />
<glyph unicode="&#xc4;" horiz-adv-x="1472" d="M1009 1789v-150h-185v150h185zM639 1789v-150h-185v150h185zM25 0l607 1430h205l610 -1430h-195l-190 450h-478l51 150h357l-264 638l-511 -1238h-192z" />
<glyph unicode="&#xc5;" horiz-adv-x="1472" d="M732 1431q144 0 144 147q0 144 -144 144q-148 0 -148 -144q0 -147 148 -147zM454 1576q0 260 278 260q274 0 274 -260q0 -259 -274 -259q-278 0 -278 259zM25 0l607 1430h205l610 -1430h-195l-190 450h-478l51 150h357l-264 638l-511 -1238h-192z" />
<glyph unicode="&#xc6;" horiz-adv-x="1875" d="M25 0l607 1430h1098v-150h-838l210 -480h593v-150h-524l226 -500h353v-150h-498l-524 1238l-266 -638h350l58 -150h-459l-194 -450h-192z" />
<glyph unicode="&#xc7;" horiz-adv-x="1385" d="M1250 50q-185 -60 -400 -60q-750 0 -750 745q0 705 750 705q215 0 400 -60v-160q-185 70 -380 70q-585 0 -585 -555q0 -595 585 -595q195 0 380 70v-160zM583 -264q108 -50 216 -50t108 65q0 64 -83 64h-183l131 260h135l-81 -152q214 0 214 -172q0 -173 -241 -173 q-108 0 -216 50v108z" />
<glyph unicode="&#xc8;" horiz-adv-x="1225" d="M836 1688v-150l-400 150v150zM150 1430v-1430h950v150h-765v500h715v150h-715v480h750v150h-935z" />
<glyph unicode="&#xc9;" horiz-adv-x="1225" d="M836 1838v-150l-400 -150v150zM150 1430v-1430h950v150h-765v500h715v150h-715v480h750v150h-935z" />
<glyph unicode="&#xca;" horiz-adv-x="1225" d="M554 1834h150l175 -260h-150l-100 160l-100 -160h-150zM150 1430v-1430h950v150h-765v500h715v150h-715v480h750v150h-935z" />
<glyph unicode="&#xcb;" horiz-adv-x="1225" d="M891 1789v-150h-185v150h185zM521 1789v-150h-185v150h185zM150 1430v-1430h950v150h-765v500h715v150h-715v480h750v150h-935z" />
<glyph unicode="&#xcc;" d="M150 1430v-1430h185v1430h-185zM445 1688v-150l-400 150v150z" />
<glyph unicode="&#xcd;" d="M150 1430v-1430h185v1430h-185zM445 1838v-150l-400 -150v150z" />
<glyph unicode="&#xce;" d="M150 1430v-1430h185v1430h-185zM167 1834h150l175 -260h-150l-100 160l-100 -160h-150z" />
<glyph unicode="&#xcf;" d="M150 1430v-1430h185v1430h-185zM520 1789v-150h-185v150h185zM150 1789v-150h-185v150h185z" />
<glyph unicode="&#xd0;" horiz-adv-x="663" />
<glyph unicode="&#xd1;" horiz-adv-x="1535" d="M1015 1809v-150q-105 -80 -240 -20t-260 -20v150q105 80 240 20t260 20zM150 0v1430h185l875 -1142v1142h175v-1430h-185l-875 1142v-1142h-175z" />
<glyph unicode="&#xd2;" horiz-adv-x="1625" d="M990 1688v-150l-400 150v150zM818 140q512 0 512 579q0 571 -512 571q-523 0 -523 -571q0 -579 523 -579zM100 713q0 727 718 727q707 0 707 -727q0 -723 -707 -723q-718 0 -718 723z" />
<glyph unicode="&#xd3;" horiz-adv-x="1625" d="M990 1838v-150l-400 -150v150zM818 140q512 0 512 579q0 571 -512 571q-523 0 -523 -571q0 -579 523 -579zM100 713q0 727 718 727q707 0 707 -727q0 -723 -707 -723q-718 0 -718 723z" />
<glyph unicode="&#xd4;" horiz-adv-x="1625" d="M734 1834h150l175 -260h-150l-100 160l-100 -160h-150zM818 140q512 0 512 579q0 571 -512 571q-523 0 -523 -571q0 -579 523 -579zM100 713q0 727 718 727q707 0 707 -727q0 -723 -707 -723q-718 0 -718 723z" />
<glyph unicode="&#xd5;" horiz-adv-x="1625" d="M1063 1809v-150q-105 -80 -240 -20t-260 -20v150q105 80 240 20t260 20zM818 140q512 0 512 579q0 571 -512 571q-523 0 -523 -571q0 -579 523 -579zM100 713q0 727 718 727q707 0 707 -727q0 -723 -707 -723q-718 0 -718 723z" />
<glyph unicode="&#xd6;" horiz-adv-x="1625" d="M1098 1789v-150h-185v150h185zM728 1789v-150h-185v150h185zM818 140q512 0 512 579q0 571 -512 571q-523 0 -523 -571q0 -579 523 -579zM100 713q0 727 718 727q707 0 707 -727q0 -723 -707 -723q-718 0 -718 723z" />
<glyph unicode="&#xd7;" horiz-adv-x="636" />
<glyph unicode="&#xd8;" horiz-adv-x="1625" d="M818 140q512 0 512 579q0 571 -512 571q-523 0 -523 -571q0 -579 523 -579zM100 713q0 727 718 727q707 0 707 -727q0 -723 -707 -723q-718 0 -718 723zM168 0l1083 1430h198l-1084 -1430h-197z" />
<glyph unicode="&#xd9;" horiz-adv-x="1490" d="M948 1688v-150l-400 150v150zM150 552v878h185v-878q0 -412 410 -412t410 412v878h185v-878q0 -562 -595 -562t-595 562z" />
<glyph unicode="&#xda;" horiz-adv-x="1490" d="M948 1838v-150l-400 -150v150zM150 552v878h185v-878q0 -412 410 -412t410 412v878h185v-878q0 -562 -595 -562t-595 562z" />
<glyph unicode="&#xdb;" horiz-adv-x="1490" d="M653 1834h150l175 -260h-150l-100 160l-100 -160h-150zM150 552v878h185v-878q0 -412 410 -412t410 412v878h185v-878q0 -562 -595 -562t-595 562z" />
<glyph unicode="&#xdc;" horiz-adv-x="1490" d="M1024 1789v-150h-185v150h185zM654 1789v-150h-185v150h185zM150 552v878h185v-878q0 -412 410 -412t410 412v878h185v-878q0 -562 -595 -562t-595 562z" />
<glyph unicode="&#xdd;" horiz-adv-x="526" />
<glyph unicode="&#xde;" horiz-adv-x="576" />
<glyph unicode="&#xdf;" horiz-adv-x="1211" d="M150 0v959q0 468 464 468q430 0 430 -397v-95q-304 -103 -304 -238q0 -71 185.5 -137.5t185.5 -257.5q0 -302 -424 -302h-132v150h134q227 0 227 152q0 81 -175.5 147.5t-175.5 244.5q0 208 288 336q0 247 -246 247q-272 0 -272 -321v-956h-185z" />
<glyph unicode="&#xe0;" horiz-adv-x="1135" d="M100 327q0 323 426 323q157 0 274 -20v99q0 171 -283 171q-162 0 -332 -50v150q170 50 332 50q468 0 468 -336v-714h-94l-74 74q-137 -74 -322 -74q-395 0 -395 327zM526 500q-241 0 -241 -170q0 -180 210 -180q192 0 305 82v248q-110 20 -274 20zM758 1355v-150 l-400 150v150z" />
<glyph unicode="&#xe1;" horiz-adv-x="1135" d="M758 1505v-150l-400 -150v150zM100 327q0 323 426 323q157 0 274 -20v99q0 171 -283 171q-162 0 -332 -50v150q170 50 332 50q468 0 468 -336v-714h-94l-74 74q-137 -74 -322 -74q-395 0 -395 327zM526 500q-241 0 -241 -170q0 -180 210 -180q192 0 305 82v248 q-110 20 -274 20z" />
<glyph unicode="&#xe2;" horiz-adv-x="1135" d="M490 1540h150l175 -260h-150l-100 160l-100 -160h-150zM100 327q0 323 426 323q157 0 274 -20v99q0 171 -283 171q-162 0 -332 -50v150q170 50 332 50q468 0 468 -336v-714h-94l-74 74q-137 -74 -322 -74q-395 0 -395 327zM526 500q-241 0 -241 -170q0 -180 210 -180 q192 0 305 82v248q-110 20 -274 20z" />
<glyph unicode="&#xe3;" horiz-adv-x="1135" d="M803 1449v-150q-105 -80 -240 -20t-260 -20v150q105 80 240 20t260 20zM100 327q0 323 426 323q157 0 274 -20v99q0 171 -283 171q-162 0 -332 -50v150q170 50 332 50q468 0 468 -336v-714h-94l-74 74q-137 -74 -322 -74q-395 0 -395 327zM526 500q-241 0 -241 -170 q0 -180 210 -180q192 0 305 82v248q-110 20 -274 20z" />
<glyph unicode="&#xe4;" horiz-adv-x="1135" d="M846 1430v-150h-185v150h185zM476 1430v-150h-185v150h185zM100 327q0 323 426 323q157 0 274 -20v99q0 171 -283 171q-162 0 -332 -50v150q170 50 332 50q468 0 468 -336v-714h-94l-74 74q-137 -74 -322 -74q-395 0 -395 327zM526 500q-241 0 -241 -170q0 -180 210 -180 q192 0 305 82v248q-110 20 -274 20z" />
<glyph unicode="&#xe5;" horiz-adv-x="1135" d="M565 1394q144 0 144 147q0 144 -144 144q-148 0 -148 -144q0 -147 148 -147zM287 1539q0 260 278 260q274 0 274 -260q0 -259 -274 -259q-278 0 -278 259zM100 327q0 323 426 323q157 0 274 -20v99q0 171 -283 171q-162 0 -332 -50v150q170 50 332 50q468 0 468 -336 v-714h-94l-74 74q-137 -74 -322 -74q-395 0 -395 327zM526 500q-241 0 -241 -170q0 -180 210 -180q192 0 305 82v248q-110 20 -274 20z" />
<glyph unicode="&#xe6;" horiz-adv-x="1835" d="M526 500q-241 0 -241 -170q0 -180 210 -180q192 0 305 82v248q-110 20 -274 20zM986 626h538q14 274 -250 274q-270 0 -288 -274zM189 852v145q168 53 334 53q299 0 396 -146q117 146 392 146q478 0 384 -578h-707q0 -322 400 -322q148 0 285 29v-149q-146 -30 -341 -30 q-255 0 -398 132q-213 -132 -438 -132q-396 0 -396 329q0 321 427 321q154 0 276 -22v103q0 169 -282 169q-170 0 -332 -48z" />
<glyph unicode="&#xe7;" horiz-adv-x="1025" d="M398 -264q108 -50 216 -50t108 65q0 64 -83 64h-183l131 259h135l-81 -151q214 0 214 -172q0 -173 -241 -173q-108 0 -216 50v108zM950 30q-130 -30 -280 -30q-570 0 -570 545q0 505 570 505q150 0 280 -30v-150q-130 30 -260 30q-405 0 -405 -355q0 -395 405 -395 q130 0 260 30v-150z" />
<glyph unicode="&#xe8;" horiz-adv-x="1132" d="M992 472h-707q0 -322 406 -322q139 0 278 30v-150q-139 -30 -338 -30q-531 0 -531 537q0 513 503 513q482 0 389 -578zM285 626h538q14 276 -250 276q-270 0 -288 -276zM768 1355v-150l-400 150v150z" />
<glyph unicode="&#xe9;" horiz-adv-x="1132" d="M768 1505v-150l-400 -150v150zM992 472h-707q0 -322 406 -322q139 0 278 30v-150q-139 -30 -338 -30q-531 0 -531 537q0 513 503 513q482 0 389 -578zM285 626h538q14 276 -250 276q-270 0 -288 -276z" />
<glyph unicode="&#xea;" horiz-adv-x="1132" d="M493 1540h150l175 -260h-150l-100 160l-100 -160h-150zM992 472h-707q0 -322 406 -322q139 0 278 30v-150q-139 -30 -338 -30q-531 0 -531 537q0 513 503 513q482 0 389 -578zM285 626h538q14 276 -250 276q-270 0 -288 -276z" />
<glyph unicode="&#xeb;" horiz-adv-x="1132" d="M846 1430v-150h-185v150h185zM476 1430v-150h-185v150h185zM992 472h-707q0 -322 406 -322q139 0 278 30v-150q-139 -30 -338 -30q-531 0 -531 537q0 513 503 513q482 0 389 -578zM285 626h538q14 276 -250 276q-270 0 -288 -276z" />
<glyph unicode="&#xec;" d="M445 1355v-150l-400 150v150zM335 1050v-1050h-185v1050h185z" />
<glyph unicode="&#xed;" d="M445 1505v-150l-400 -150v150zM335 1050v-1050h-185v1050h185z" />
<glyph unicode="&#xee;" d="M167 1540h150l175 -260h-150l-100 160l-100 -160h-150zM335 1050v-1050h-185v1050h185z" />
<glyph unicode="&#xef;" d="M520 1430v-150h-185v150h185zM150 1430v-150h-185v150h185zM335 1050v-1050h-185v1050h185z" />
<glyph unicode="&#xf0;" horiz-adv-x="483" />
<glyph unicode="&#xf1;" horiz-adv-x="1205" d="M853 1449v-150q-105 -80 -240 -20t-260 -20v150q105 80 240 20t260 20zM150 0v1050h125l33 -134q191 134 384 134q363 0 363 -391v-659h-185v662q0 234 -233 234q-159 0 -302 -133v-763h-185z" />
<glyph unicode="&#xf2;" horiz-adv-x="1200" d="M600 150q315 0 315 379q0 371 -315 371t-315 -371q0 -379 315 -379zM100 525q0 525 500 525t500 -525q0 -524 -500 -524q-498 0 -500 524zM784 1355v-150l-400 150v150z" />
<glyph unicode="&#xf3;" horiz-adv-x="1200" d="M792 1505v-150l-400 -150v150zM600 150q315 0 315 379q0 371 -315 371t-315 -371q0 -379 315 -379zM100 525q0 525 500 525t500 -525q0 -524 -500 -524q-498 0 -500 524z" />
<glyph unicode="&#xf4;" horiz-adv-x="1200" d="M513 1540h150l175 -260h-150l-100 160l-100 -160h-150zM600 150q315 0 315 379q0 371 -315 371t-315 -371q0 -379 315 -379zM100 525q0 525 500 525t500 -525q0 -524 -500 -524q-498 0 -500 524z" />
<glyph unicode="&#xf5;" horiz-adv-x="1200" d="M846 1449v-150q-105 -80 -240 -20t-260 -20v150q105 80 240 20t260 20zM600 150q315 0 315 379q0 371 -315 371t-315 -371q0 -379 315 -379zM100 525q0 525 500 525t500 -525q0 -524 -500 -524q-498 0 -500 524z" />
<glyph unicode="&#xf6;" horiz-adv-x="1200" d="M876 1430v-150h-185v150h185zM506 1430v-150h-185v150h185zM600 150q315 0 315 379q0 371 -315 371t-315 -371q0 -379 315 -379zM100 525q0 525 500 525t500 -525q0 -524 -500 -524q-498 0 -500 524z" />
<glyph unicode="&#xf7;" horiz-adv-x="985" d="M100 600v-150h785v150h-785zM585 300v-150h-185v150h185zM585 900v-150h-185v150h185z" />
<glyph unicode="&#xf8;" horiz-adv-x="1200" d="M600 150q315 0 315 379q0 371 -315 371t-315 -371q0 -379 315 -379zM100 525q0 525 500 525t500 -525q0 -524 -500 -524q-498 0 -500 524zM115 0l800 1050h198l-801 -1050h-197z" />
<glyph unicode="&#xf9;" horiz-adv-x="1205" d="M1055 1050v-1050h-127l-32 134q-191 -134 -384 -134q-362 0 -362 391v659h185v-662q0 -234 232 -234q159 0 303 133v763h185zM808 1355v-150l-400 150v150z" />
<glyph unicode="&#xfa;" horiz-adv-x="1205" d="M808 1505v-150l-400 -150v150zM1055 1050v-1050h-127l-32 134q-191 -134 -384 -134q-362 0 -362 391v659h185v-662q0 -234 232 -234q159 0 303 133v763h185z" />
<glyph unicode="&#xfb;" horiz-adv-x="1205" d="M527 1540h150l175 -260h-150l-100 160l-100 -160h-150zM1055 1050v-1050h-127l-32 134q-191 -134 -384 -134q-362 0 -362 391v659h185v-662q0 -234 232 -234q159 0 303 133v763h185z" />
<glyph unicode="&#xfc;" horiz-adv-x="1205" d="M886 1430v-150h-185v150h185zM516 1430v-150h-185v150h185zM1055 1050v-1050h-127l-32 134q-191 -134 -384 -134q-362 0 -362 391v659h185v-662q0 -234 232 -234q159 0 303 133v763h185z" />
<glyph unicode="&#xfd;" horiz-adv-x="393" />
<glyph unicode="&#xfe;" horiz-adv-x="348" />
<glyph unicode="&#xff;" horiz-adv-x="393" />
<glyph unicode="&#x104;" horiz-adv-x="1472" d="M25 0l607 1430h205l610 -1430h-195l-190 450h-478l51 150h357l-264 638l-511 -1238h-192zM1447 0q-202 -126 -202 -228q0 -68 85 -68t137 20v-130q-61 -20 -149 -20q-231 0 -231 173q0 131 165 253h195z" />
<glyph unicode="&#x105;" horiz-adv-x="1135" d="M100 327q0 323 426 323q157 0 274 -20v99q0 171 -283 171q-162 0 -332 -50v150q170 50 332 50q468 0 468 -336v-714h-168v74q-137 -74 -322 -74q-395 0 -395 327zM526 500q-241 0 -241 -170q0 -180 210 -180q192 0 305 82v248q-110 20 -274 20zM986 0 q-202 -126 -202 -228q0 -68 85 -68t137 20v-130q-61 -20 -149 -20q-231 0 -231 173q0 131 191 253h169z" />
<glyph unicode="&#x106;" horiz-adv-x="1385" d="M1250 210q-185 -70 -380 -70q-585 0 -585 595q0 555 585 555q195 0 380 -70v160q-185 60 -400 60q-750 0 -750 -705q0 -745 750 -745q215 0 400 60v160zM936 1838v-150l-400 -150v150z" />
<glyph unicode="&#x107;" horiz-adv-x="1025" d="M950 180q-130 -30 -260 -30q-405 0 -405 395q0 355 405 355q130 0 260 -30v150q-130 30 -280 30q-570 0 -570 -505q0 -545 570 -545q150 0 280 30v150zM768 1505v-150l-400 -150v150z" />
<glyph unicode="&#x118;" horiz-adv-x="1225" d="M1085 1430v-150h-750v-480h715v-150h-715v-500h765v-150h-950v1430h935zM1100 0q-222 -126 -222 -228q0 -68 85 -68t137 20v-130q-61 -20 -149 -20q-231 0 -231 173q0 131 173 253h207z" />
<glyph unicode="&#x119;" horiz-adv-x="1132" d="M992 472h-707q0 -322 406 -322q139 0 278 30v-150q-139 -30 -338 -30q-531 0 -531 537q0 513 503 513q482 0 389 -578zM285 626h538q14 276 -250 276q-270 0 -288 -276zM969 30q-222 -156 -222 -258q0 -68 85 -68t137 20v-130q-61 -20 -149 -20q-231 0 -231 173 q0 131 193 283h187z" />
<glyph unicode="&#x131;" horiz-adv-x="234" />
<glyph unicode="&#x141;" horiz-adv-x="1183" d="M335 1430v-1280h748v-150h-933v1430h185zM0 602l658 484v-180l-658 -484v180z" />
<glyph unicode="&#x142;" d="M335 1430v-1430h-185v1430h185zM0 602l485 360v-180l-485 -360v180z" />
<glyph unicode="&#x143;" horiz-adv-x="1535" d="M972 1838v-150l-400 -150v150zM150 0v1430h185l875 -1142v1142h175v-1430h-185l-875 1142v-1142h-175z" />
<glyph unicode="&#x144;" horiz-adv-x="1205" d="M795 1505v-150l-400 -150v150zM150 0v1050h125l33 -134q191 134 384 134q363 0 363 -391v-659h-185v662q0 234 -233 234q-159 0 -302 -133v-763h-185z" />
<glyph unicode="&#x152;" horiz-adv-x="2215" d="M818 150q512 0 512 569q0 561 -512 561q-523 0 -523 -561q0 -569 523 -569zM100 713q0 717 718 717h1257v-150h-775q195 -148 225 -480h515v-150h-515q-30 -357 -225 -500h790v-150h-1272q-718 0 -718 713z" />
<glyph unicode="&#x153;" horiz-adv-x="1943" d="M596 150q315 0 315 379q0 371 -315 371t-315 -371q0 -379 315 -379zM1096 626h538q14 276 -250 276q-270 0 -288 -276zM100 522q0 528 500 528q284 0 405 -169q118 169 407 169q487 0 390 -578h-703q0 -322 402 -322q147 0 279 28v-146q-137 -32 -333 -32 q-312 0 -441 176q-115 -176 -406 -176q-499 0 -500 522z" />
<glyph unicode="&#x15a;" horiz-adv-x="1310" d="M828 1838v-150l-400 -150v150zM170 50v170q225 -80 486 -80q369 0 369 270q0 230 -272 230h-204q-449 0 -449 390q0 410 575 410q250 0 465 -60v-170q-215 80 -465 80q-390 0 -390 -260q0 -230 264 -230h204q457 0 457 -390q0 -420 -554 -420q-261 0 -486 60z" />
<glyph unicode="&#x15b;" horiz-adv-x="1050" d="M712 1505v-150l-400 -150v150zM150 50v160q175 -60 364 -60q251 0 251 150q0 140 -165 140h-170q-330 0 -330 310q0 300 437 300q188 0 363 -50v-160q-175 60 -363 60q-262 0 -262 -150q0 -140 155 -140h170q350 0 350 -310q0 -300 -436 -300q-189 0 -364 50z" />
<glyph unicode="&#x160;" horiz-adv-x="621" />
<glyph unicode="&#x161;" horiz-adv-x="342" />
<glyph unicode="&#x178;" horiz-adv-x="526" />
<glyph unicode="&#x179;" horiz-adv-x="1250" d="M145 1430v-150h784l-804 -1130v-150h980v150h-757l777 1130v150h-980zM812 1838v-150l-400 -150v150z" />
<glyph unicode="&#x17a;" horiz-adv-x="990" d="M715 1505v-150l-400 -150v150zM120 1050h770v-150l-567 -760h547v-140h-770v140l575 760h-555v150z" />
<glyph unicode="&#x17b;" horiz-adv-x="1250" d="M145 1430v-150h784l-804 -1130v-150h980v150h-757l777 1130v150h-980zM730 1789v-190h-215v190h215z" />
<glyph unicode="&#x17c;" horiz-adv-x="990" d="M120 1050h770v-150l-567 -760h547v-140h-770v140l575 760h-555v150zM609 1430v-190h-205v190h205z" />
<glyph unicode="&#x17d;" horiz-adv-x="690" />
<glyph unicode="&#x17e;" horiz-adv-x="462" />
<glyph unicode="&#x192;" horiz-adv-x="576" />
<glyph unicode="&#x2c6;" horiz-adv-x="550" d="M200 1538h150l175 -260h-150l-100 160l-100 -160h-150z" />
<glyph unicode="&#x2c7;" horiz-adv-x="360" />
<glyph unicode="&#x2d8;" horiz-adv-x="360" />
<glyph unicode="&#x2d9;" horiz-adv-x="183" />
<glyph unicode="&#x2da;" horiz-adv-x="552" d="M278 1431q144 0 144 147q0 144 -144 144q-148 0 -148 -144q0 -147 148 -147zM0 1576q0 260 278 260q274 0 274 -260q0 -259 -274 -259q-278 0 -278 259z" />
<glyph unicode="&#x2db;" horiz-adv-x="270" />
<glyph unicode="&#x2dc;" horiz-adv-x="700" d="M600 620v-150q-105 -80 -240 -20t-260 -20v150q105 80 240 20t260 20z" />
<glyph unicode="&#x2dd;" horiz-adv-x="468" />
<glyph unicode="&#x394;" horiz-adv-x="366" />
<glyph unicode="&#x2206;" horiz-adv-x="366" />
<glyph unicode="&#x3a9;" horiz-adv-x="1443" />
<glyph unicode="&#x2126;" horiz-adv-x="1443" />
<glyph unicode="&#x3c0;" horiz-adv-x="798" />
<glyph unicode="&#x2000;" horiz-adv-x="919" />
<glyph unicode="&#x2001;" horiz-adv-x="1838" />
<glyph unicode="&#x2002;" horiz-adv-x="919" />
<glyph unicode="&#x2003;" horiz-adv-x="1838" />
<glyph unicode="&#x2004;" horiz-adv-x="612" />
<glyph unicode="&#x2005;" horiz-adv-x="459" />
<glyph unicode="&#x2006;" horiz-adv-x="306" />
<glyph unicode="&#x2007;" horiz-adv-x="306" />
<glyph unicode="&#x2008;" horiz-adv-x="229" />
<glyph unicode="&#x2009;" horiz-adv-x="367" />
<glyph unicode="&#x200a;" horiz-adv-x="102" />
<glyph unicode="&#x2011;" horiz-adv-x="700" d="M600 600v-150h-500v150h500z" />
<glyph unicode="&#x2013;" horiz-adv-x="684" />
<glyph unicode="&#x2014;" horiz-adv-x="894" />
<glyph unicode="&#x2018;" horiz-adv-x="535" d="M285 1430l150 -435h-185l-150 435h185z" />
<glyph unicode="&#x2019;" horiz-adv-x="535" d="M435 1430l-150 -435h-185l150 435h185z" />
<glyph unicode="&#x201a;" horiz-adv-x="234" />
<glyph unicode="&#x201c;" horiz-adv-x="905" d="M435 1430l-150 -435h-185l150 435h185zM805 1430l-150 -435h-185l150 435h185z" />
<glyph unicode="&#x201d;" horiz-adv-x="905" d="M655 1430l150 -435h-185l-150 435h185zM285 1430l150 -435h-185l-150 435h185z" />
<glyph unicode="&#x201e;" horiz-adv-x="905" d="M435 185l-150 -435h-185l150 435h185zM805 185l-150 -435h-185l150 435h185z" />
<glyph unicode="&#x2020;" horiz-adv-x="1035" d="M615 1430v-420h370v-160h-370v-850h-185v850h-380v160h380v420h185z" />
<glyph unicode="&#x2021;" horiz-adv-x="336" />
<glyph unicode="&#x2022;" horiz-adv-x="630" d="M100 725q0 215 215 215t215 -215t-215 -215t-215 215z" />
<glyph unicode="&#x2026;" horiz-adv-x="792" />
<glyph unicode="&#x202f;" horiz-adv-x="367" />
<glyph unicode="&#x2030;" horiz-adv-x="2107" d="M1733 104q144 0 144 147q0 144 -144 144q-148 0 -148 -144q0 -147 148 -147zM1455 249q0 260 278 260q274 0 274 -260q0 -259 -274 -259q-278 0 -278 259zM378 1035q144 0 144 147q0 144 -144 144q-148 0 -148 -144q0 -147 148 -147zM100 1180q0 260 278 260 q274 0 274 -260q0 -259 -274 -259q-278 0 -278 259zM1048 104q144 0 144 147q0 144 -144 144q-148 0 -148 -144q0 -147 148 -147zM770 249q0 260 278 260q274 0 274 -260q0 -259 -274 -259q-278 0 -278 259zM305 0h-205l1017 1430h205z" />
<glyph unicode="&#x2039;" horiz-adv-x="610" d="M100 525l258 375h202l-258 -375l258 -375h-202z" />
<glyph unicode="&#x203a;" horiz-adv-x="610" d="M252 150h-202l258 375l-258 375h202l258 -375z" />
<glyph unicode="&#x2044;" horiz-adv-x="234" />
<glyph unicode="&#x205f;" horiz-adv-x="459" />
<glyph unicode="&#x20ac;" horiz-adv-x="1385" d="M1250 50q-185 -60 -400 -60q-750 0 -750 745q0 705 750 705q215 0 400 -60v-160q-185 70 -380 70q-498 0 -585 -348h773v-150h-793v-110h793v-150h-773q77 -392 585 -392q195 0 380 70v-160z" />
<glyph unicode="&#x2122;" horiz-adv-x="1606" d="M661 1430v-71h-212v-602h-87v602h-212v71h511zM750 757v673h110l248 -561l242 561h106v-673h-78v543l-239 -543h-69l-243 543v-543h-77z" />
<glyph unicode="&#x2202;" horiz-adv-x="483" />
<glyph unicode="&#x220f;" horiz-adv-x="798" />
<glyph unicode="&#x2211;" horiz-adv-x="1398" />
<glyph unicode="&#x221a;" horiz-adv-x="819" />
<glyph unicode="&#x221e;" horiz-adv-x="669" />
<glyph unicode="&#x222b;" horiz-adv-x="1398" />
<glyph unicode="&#x2248;" horiz-adv-x="636" />
<glyph unicode="&#x22f2;" horiz-adv-x="636" />
<glyph unicode="&#x2260;" horiz-adv-x="636" />
<glyph unicode="&#x2264;" horiz-adv-x="342" />
<glyph unicode="&#x2265;" horiz-adv-x="342" />
<glyph unicode="&#x25ca;" horiz-adv-x="243" />
<glyph unicode="&#x2665;" horiz-adv-x="894" d="M447 954q120 156 272.5 104.5t120 -249t-392.5 -450.5q-360 253 -392.5 450.5t120 248t272.5 -103.5z" />
<glyph unicode="&#xf000;" horiz-adv-x="588" />
<glyph unicode="&#xf001;" horiz-adv-x="525" />
<glyph unicode="&#xf002;" horiz-adv-x="480" />
</font>
</defs>
</svg>
